<svg width="54" height="54" viewBox="0 0 54 54" fill="none" xmlns="http://www.w3.org/2000/svg">
<g clip-path="url(#clip0_2108_502)">
<path d="M51.7497 29.2432C50.7483 29.2432 47.1702 29.8238 43.1061 31.9459L38.1397 26.9794L45.388 19.7356C49.1168 16.0113 51.9589 11.3936 53.6039 6.37761C54.3263 4.66285 54.036 2.62856 52.6813 1.30986C51.4729 0.036174 49.3913 -0.344132 47.6001 0.389476C42.5998 2.02997 37.9889 4.86313 34.2601 8.58743L27.0005 15.8425L19.7275 8.57843C16.0054 4.86313 11.3967 2.03222 6.3965 0.391726C4.67724 -0.337381 2.63394 -0.0583399 1.31075 1.30986C-0.0371998 2.62631 -0.345495 4.65835 0.385862 6.37086C2.03085 11.3868 4.87527 16.0068 8.60857 19.7378L15.8569 26.9749L10.8837 31.9436C6.82181 29.8216 3.24378 29.241 2.24014 29.241C1.01145 29.241 0.0393113 30.2266 0.0190584 31.453C-0.00119461 32.6817 0.995702 33.6989 2.22213 33.7416C3.10201 33.7709 7.96948 34.725 12.4544 38.3301L2.89948 47.9075C2.02185 48.7874 2.0241 50.2096 2.90173 51.0894C3.78161 51.9648 5.20832 51.9671 6.08595 51.0849L15.6409 41.512C19.2504 45.9947 20.2135 50.8644 20.245 51.7578C20.2518 52.9955 21.2577 53.9969 22.4954 53.9969C23.733 53.9969 24.7457 52.991 24.7457 51.7465C24.7457 50.7406 24.1629 47.1491 22.0295 43.076L26.9983 38.1118L31.9625 43.076C29.8292 47.1491 29.2464 50.7429 29.2464 51.7465C29.2464 52.9752 30.232 53.9474 31.4584 53.9654H31.4967C32.7074 53.9654 33.7065 52.9775 33.747 51.7623C33.7763 50.8802 34.7349 46.0082 38.3422 41.5233L47.9083 51.0894C48.7882 51.9693 50.2104 51.9693 51.0903 51.0894C51.9702 50.2096 51.9702 48.7874 51.0903 47.9075L41.5242 38.3413C46.0023 34.7363 50.8675 33.7776 51.7609 33.7461C52.9986 33.7394 54 32.7357 54 31.4958C54 30.2559 52.9918 29.2455 51.7497 29.2455V29.2432ZM11.7905 16.5514C8.43755 13.2051 5.92393 9.0285 4.51297 4.50758C9.02938 5.91404 13.2037 8.41641 16.5477 11.7626L23.8163 19.0222L19.0411 23.7929L11.7905 16.5514ZM17.3354 36.6536C16.5027 35.8209 15.6409 35.0828 14.7745 34.419L37.4421 11.7672C40.7906 8.41416 44.9694 5.91854 49.4813 4.50308C48.0726 9.02625 45.5613 13.2051 42.2083 16.5491L19.5519 39.1897C18.8926 38.3301 18.1612 37.4794 17.3354 36.6536ZM34.4401 39.1897L30.1802 34.9298L34.9554 30.1591L39.2153 34.419C38.3489 35.0828 37.4871 35.8187 36.6544 36.6536C35.8286 37.4794 35.0995 38.3301 34.4401 39.1897Z" fill="black"/>
</g>
<defs>
<clipPath id="clip0_2108_502">
<rect width="54" height="54" fill="white"/>
</clipPath>
</defs>
</svg>
