<svg width="54" height="54" viewBox="0 0 54 54" fill="none" xmlns="http://www.w3.org/2000/svg">
<g clip-path="url(#clip0_2108_576)">
<path d="M52.719 21.6843C52.1887 21.1243 51.5241 20.7092 50.7883 20.4782C50.0524 20.2472 49.2698 20.2081 48.5146 20.3645C48.0334 20.4612 47.5635 20.5894 47.1004 20.7153C45.3667 17.828 43.0529 15.3317 40.3052 13.3843C37.5575 11.4369 34.4356 10.0808 31.137 9.40155C31.8694 8.59577 32.352 7.5946 32.5261 6.51971C32.7002 5.44483 32.5584 4.34251 32.1178 3.34671C31.6773 2.35092 30.957 1.50453 30.0444 0.910407C29.1319 0.316281 28.0664 0 26.9775 0C25.8886 0 24.8232 0.316281 23.9107 0.910407C22.9981 1.50453 22.2778 2.35092 21.8373 3.34671C21.3967 4.34251 21.2549 5.44483 21.429 6.51971C21.6031 7.5946 22.0857 8.59577 22.8181 9.40155C19.5191 10.0821 16.3972 11.4398 13.6499 13.3887C10.9025 15.3377 8.58947 17.8355 6.85698 20.7243C6.39382 20.5916 5.92391 20.4702 5.44276 20.3735C4.68756 20.2169 3.90485 20.2559 3.16897 20.4869C2.4331 20.7179 1.76851 21.1332 1.23833 21.6933C0.709059 22.2478 0.331045 22.9289 0.140503 23.6714C-0.05004 24.4139 -0.0467274 25.1929 0.150123 25.9337L6.67036 49.5258C6.11611 49.5897 5.60542 49.8574 5.23756 50.2769C4.86969 50.6963 4.67092 51.2376 4.6799 51.7955C4.68887 52.3533 4.90493 52.8879 5.28609 53.2953C5.66726 53.7028 6.18629 53.9539 6.74231 54H47.2128C47.7785 53.9655 48.3103 53.7186 48.7017 53.3087C49.0931 52.8989 49.3154 52.3563 49.3239 51.7896C49.3324 51.223 49.1266 50.674 48.7477 50.2525C48.3687 49.8311 47.8446 49.5683 47.2802 49.5168L53.8162 25.8753C54.0045 25.141 54.0025 24.3709 53.8105 23.6377C53.6186 22.9044 53.2429 22.2321 52.719 21.6843ZM26.9775 13.5295C30.1741 13.5809 33.3069 14.4318 36.0902 16.0047C38.8735 17.5776 41.2186 19.8224 42.9117 22.5342C41.1586 23.5775 39.6302 24.9585 38.4149 26.597C37.2008 24.6632 35.5157 23.0692 33.5175 21.9643C31.5192 20.8595 29.2733 20.2799 26.9899 20.2799C24.7066 20.2799 22.4606 20.8595 20.4623 21.9643C18.4641 23.0692 16.779 24.6632 15.5649 26.597C14.3502 24.9579 12.8217 23.5769 11.0682 22.5342C12.7589 19.8258 15.1002 17.5833 17.8788 16.0106C20.6574 14.4379 23.7852 13.585 26.9775 13.5295ZM42.6216 49.5033H11.3402L4.55241 24.7713C8.99067 25.6707 13.4874 29.0432 13.4874 33.7648C13.4874 34.3611 13.7243 34.9329 14.1459 35.3546C14.5676 35.7762 15.1394 36.0131 15.7357 36.0131C16.332 36.0131 16.9039 35.7762 17.3256 35.3546C17.7472 34.9329 17.9841 34.3611 17.9841 33.7648C17.9841 31.3796 18.9316 29.092 20.6182 27.4054C22.3048 25.7189 24.5923 24.7713 26.9775 24.7713C29.3627 24.7713 31.6503 25.7189 33.3369 27.4054C35.0235 29.092 35.971 31.3796 35.971 33.7648C35.971 34.3611 36.2079 34.9329 36.6295 35.3546C37.0512 35.7762 37.623 36.0131 38.2193 36.0131C38.8156 36.0131 39.3875 35.7762 39.8092 35.3546C40.2308 34.9329 40.4677 34.3611 40.4677 33.7648C40.4677 29.0432 44.9644 25.6707 49.4611 24.7241L42.6216 49.5033Z" fill="black"/>
</g>
<defs>
<clipPath id="clip0_2108_576">
<rect width="54" height="54" fill="white"/>
</clipPath>
</defs>
</svg>
