<svg width="54" height="54" viewBox="0 0 54 54" fill="none" xmlns="http://www.w3.org/2000/svg">
<g clip-path="url(#clip0_2108_526)">
<path d="M51.7496 44.9997C51.1529 44.9997 50.5806 45.2367 50.1587 45.6587C49.7367 46.0806 49.4996 46.6529 49.4996 47.2497C49.4996 48.0237 47.9652 49.4996 45.5622 49.4996C44.8872 49.5234 44.2153 49.3966 43.5954 49.1284C42.9754 48.8603 42.4229 48.4576 41.978 47.9494C42.0659 47.806 42.162 47.6677 42.2659 47.5354C45.9353 43.6873 48.403 38.8528 49.3669 33.6238C49.6523 32.0506 49.3699 30.4271 48.5701 29.0426C47.7703 27.6582 46.5051 26.6025 44.9997 26.0638V20.2499C44.9997 17.8629 44.0515 15.5738 42.3637 13.8859C40.6758 12.1981 38.3867 11.2499 35.9997 11.2499V8.99994C35.9997 6.613 35.0515 4.32384 33.3637 2.63602C31.6759 0.948205 29.3867 0 26.9998 0C24.6129 0 22.3237 0.948205 20.6359 2.63602C18.9481 4.32384 17.9999 6.613 17.9999 8.99994V11.2499C15.6129 11.2499 13.3238 12.1981 11.636 13.8859C9.94814 15.5738 8.99994 17.8629 8.99994 20.2499V26.0346C7.47578 26.561 6.19046 27.6158 5.3766 29.0078C4.56273 30.3999 4.27411 32.0373 4.56297 33.6238C5.55106 38.8591 8.04279 43.6932 11.7337 47.5354C11.8416 47.6712 11.9416 47.8132 12.0329 47.9607C11.5875 48.4705 11.033 48.8736 10.4106 49.14C9.78821 49.4065 9.11382 49.5294 8.43744 49.4996C5.98721 49.4996 4.49997 47.9382 4.49997 47.2497C4.49997 46.6529 4.26292 46.0806 3.84096 45.6587C3.41901 45.2367 2.84672 44.9997 2.24998 44.9997C1.65325 44.9997 1.08096 45.2367 0.659005 45.6587C0.237051 46.0806 0 46.6529 0 47.2497C0 50.9081 3.86547 53.9996 8.43744 53.9996C10.7126 54.0202 12.9192 53.2216 14.6541 51.7496C16.3846 53.1948 18.5659 53.9895 20.8205 53.9961C23.075 54.0027 25.2609 53.2207 26.9998 51.7856C28.745 53.2193 30.9352 54 33.1937 53.9934C35.4523 53.9868 37.6379 53.1934 39.3747 51.7496C41.0993 53.2137 43.291 54.0118 45.5532 53.9996C50.1341 53.9996 53.9996 50.9081 53.9996 47.2497C53.9996 46.6529 53.7626 46.0806 53.3406 45.6587C52.9187 45.2367 52.3464 44.9997 51.7496 44.9997ZM22.4998 8.99994C22.4998 7.80647 22.9739 6.66189 23.8179 5.81798C24.6618 4.97407 25.8063 4.49997 26.9998 4.49997C28.1933 4.49997 29.3379 4.97407 30.1818 5.81798C31.0257 6.66189 31.4998 7.80647 31.4998 8.99994V11.2499H22.4998V8.99994ZM17.9999 15.7499H35.9997C37.1932 15.7499 38.3378 16.224 39.1817 17.0679C40.0256 17.9118 40.4997 19.0564 40.4997 20.2499V24.5698L29.1328 20.8394C27.751 20.3848 26.2599 20.3848 24.8781 20.8394L13.4999 24.5541V20.2499C13.4999 19.0564 13.974 17.9118 14.8179 17.0679C15.6618 16.224 16.8064 15.7499 17.9999 15.7499ZM20.8124 49.4996C20.0603 49.5408 19.3105 49.3865 18.6358 49.0517C17.9612 48.717 17.3847 48.2132 16.9626 47.5894C16.494 46.466 15.85 45.424 15.0546 44.5024C11.9528 41.2911 9.84956 37.2487 8.99994 32.8655C8.89605 32.3264 8.98929 31.7678 9.26269 31.2917C9.53608 30.8155 9.97143 30.4534 10.4894 30.2713L24.7498 25.6116V47.2497C24.7498 48.0237 23.2153 49.4996 20.8124 49.4996ZM33.1873 49.4996C30.737 49.4996 29.2498 47.9382 29.2498 47.2497V25.6138L43.4359 30.269C43.9557 30.4507 44.3929 30.8131 44.6679 31.29C44.943 31.767 45.0375 32.3269 44.9344 32.8678C44.1093 37.2451 42.0283 41.2876 38.945 44.5024C38.1446 45.4253 37.5001 46.4725 37.037 47.6029C36.6147 48.2256 36.0379 48.7279 35.363 49.0604C34.6881 49.3929 33.9383 49.5443 33.1873 49.4996Z" fill="black"/>
</g>
<defs>
<clipPath id="clip0_2108_526">
<rect width="54" height="54" fill="white"/>
</clipPath>
</defs>
</svg>
