<svg width="54" height="54" viewBox="0 0 54 54" fill="none" xmlns="http://www.w3.org/2000/svg">
<g clip-path="url(#clip0_2108_606)">
<g clip-path="url(#clip1_2108_606)">
<path d="M53.955 48.5235L37.701 4.42575C37.08 2.73375 35.838 1.38375 34.2 0.627745C32.5643 -0.132755 30.7305 -0.207005 29.0385 0.416245L26.9258 1.1925C26.289 1.4265 25.7018 1.746 25.1753 2.14425C23.9423 0.827996 22.1918 0.00224534 20.25 0.00224534H6.75C3.0285 -4.66023e-06 0 3.0285 0 6.75V54H27V20.9362L39.168 53.9483L53.955 48.5235ZM41.8343 48.177L39.663 42.2842L45.999 39.96L48.1703 45.8528L41.8343 48.177ZM38.106 38.0632L30.2558 16.7647L36.5918 14.4382L44.442 35.7368L38.106 38.0632ZM27.2093 6.58125C27.4613 6.03675 27.9113 5.6205 28.476 5.4135L30.5888 4.63725C30.8408 4.545 31.104 4.49775 31.365 4.49775C31.6868 4.49775 32.0063 4.5675 32.3078 4.707C32.8545 4.959 33.2685 5.409 33.4778 5.976L35.0393 10.215L28.7033 12.5415L27.1395 8.30025C26.9325 7.7355 26.9573 7.128 27.2093 6.58125ZM22.5 6.75V11.25H15.75V4.5H20.25C21.4898 4.5 22.5 5.508 22.5 6.75ZM15.75 15.75H22.5V38.25H15.75V15.75ZM11.25 38.25H4.5V15.75H11.25V38.25ZM6.75 4.5H11.25V11.25H4.5V6.75C4.5 5.508 5.51025 4.5 6.75 4.5ZM4.5 42.75H11.25V49.5H4.5V42.75ZM15.75 49.5V42.75H22.5V49.5H15.75Z" fill="black"/>
</g>
</g>
<defs>
<clipPath id="clip0_2108_606">
<rect width="54" height="54" fill="white"/>
</clipPath>
<clipPath id="clip1_2108_606">
<rect width="54" height="54" fill="white"/>
</clipPath>
</defs>
</svg>
