<svg width="54" height="54" viewBox="0 0 54 54" fill="none" xmlns="http://www.w3.org/2000/svg">
<g clip-path="url(#clip0_66_1489)">
<path d="M49.4977 41.5508C49.4977 50.7038 39.4087 54 32.625 54H28.125C14.4608 54 0.00675 40.707 0 28.134V28.125V28.1205C0 23.499 0.95625 17.451 4.671 11.259H1.17675C0.13725 11.259 -0.38925 9.99676 0.351 9.26776C4.095 5.58901 8.72775 1.98451 11.8665 0.191257C12.8317 -0.359993 14.0445 0.346507 14.0512 1.46026C14.076 6.05926 13.0995 11.4638 12.1702 15.9098C11.9183 17.1113 10.2555 17.2395 9.82125 16.0898L8.289 12.429C6.7365 16.7423 4.50225 19.125 4.50225 28.125C4.50225 37.0553 16.938 46.125 25.8773 46.125C28.5998 46.125 33.7523 45.4208 33.7523 42.75C33.7523 41.3843 32.157 40.0208 30.0667 38.6168L22.653 40.5135C21.8002 40.7025 21.1095 39.8183 21.501 39.0375L24.1178 34.785C23.6385 34.452 23.1637 34.11 22.6957 33.7523H14.5733C13.5833 33.7523 13.0882 32.5553 13.788 31.8555L17.9932 28.9193C17.577 28.2893 17.2057 27.6233 16.893 26.9145L10.0305 26.379C9.0675 26.2598 8.75475 25.02 9.5445 24.4553L15.7995 20.8688C15.9075 20.0588 16.2855 17.6288 17.0933 15.9143C17.6243 14.7893 18.9675 14.3055 20.088 14.8388C21.213 15.3675 21.6945 16.7085 21.1657 17.8335C20.6752 18.873 20.3558 20.7563 20.2568 21.5055C20.331 27.1935 25.2472 30.2648 30.0037 33.2325C34.2495 35.883 38.2568 38.385 38.2568 42.7478C38.2568 46.2038 35.9933 48.3345 32.8973 49.4955C36.3172 49.419 45.0068 47.8845 45.0068 41.6228C44.8133 35.8088 41.472 32.2605 34.0537 26.5275C33.0682 25.7693 32.8882 24.354 33.6488 23.373C34.4025 22.392 35.82 22.203 36.8032 22.968C44.0662 28.5773 49.2255 33.1965 49.5045 41.5485L49.4977 41.5508ZM44.9977 11.25H51.75C52.9943 11.25 54 10.2443 54 9.00001C54 7.75576 52.9943 6.75001 51.75 6.75001H43.9583C42.8985 5.38426 41.2155 4.50001 39.375 4.50001H37.8045C35.9505 2.55826 35.622 1.41976 35.316 0.821257C35.109 0.416257 34.947 7.30675e-06 34.4948 7.30675e-06C34.0425 7.30675e-06 33.6735 0.369007 33.6735 0.821257C33.6735 2.89801 33.8018 3.85201 34.0785 5.35726C31.9837 4.35826 28.6628 1.32751 27.3353 0.220507C26.6535 -0.348743 25.6432 0.261007 25.8097 1.13401C26.1787 3.08251 28.323 6.80176 29.556 8.57476C26.0662 8.18551 21.285 7.15051 19.0462 6.75001C18.2183 6.60151 17.6647 7.58476 18.2317 8.20801C19.9777 10.1295 24.4845 13.455 29.4975 14.8815C28.3185 16.398 27.3173 19.4738 26.9482 21.204C26.7502 22.1265 27.7537 22.8353 28.5503 22.3313C30.6473 21.006 34.4317 17.9978 37.1273 17.9978C42.7635 17.9978 46.368 20.4593 48.0173 21.9263C48.4447 22.3088 48.9803 22.4955 49.5135 22.4955C50.1323 22.4955 50.751 22.2413 51.1943 21.7418C52.02 20.8148 51.9367 19.3905 51.0098 18.5648C49.3762 17.1113 46.2623 14.9018 41.6768 13.9545C42.0818 11.2928 44.9055 11.2478 45 11.2478L44.9977 11.25Z" fill="black"/>
</g>
<defs>
<clipPath id="clip0_66_1489">
<rect width="54" height="54" fill="white"/>
</clipPath>
</defs>
</svg>
